<mxfile host="app.diagrams.net" modified="2022-03-27T14:11:28.981Z" agent="5.0 (Windows NT 10.0; Win64; x64) AppleWebKit/537.36 (KHTML, like Gecko) Chrome/99.0.4844.74 Safari/537.36 Edg/99.0.1150.52" etag="pWL0a-dETrl6MctCsKQ4" version="17.2.4" type="github">
  <diagram id="C5RBs43oDa-KdzZeNtuy" name="Page-1">
    <mxGraphModel dx="1420" dy="789" grid="0" gridSize="10" guides="1" tooltips="1" connect="1" arrows="1" fold="1" page="0" pageScale="1" pageWidth="827" pageHeight="1169" math="0" shadow="0">
      <root>
        <mxCell id="WIyWlLk6GJQsqaUBKTNV-0" />
        <mxCell id="WIyWlLk6GJQsqaUBKTNV-1" parent="WIyWlLk6GJQsqaUBKTNV-0" />
        <mxCell id="MUNKduZxBYxkbEoiolL1-5" style="edgeStyle=orthogonalEdgeStyle;rounded=0;orthogonalLoop=1;jettySize=auto;html=1;entryX=0;entryY=0.5;entryDx=0;entryDy=0;fontFamily=宋体;fontSource=https%3A%2F%2Fsongti.laoxiezi.com%2F;fontSize=24;fontColor=default;" edge="1" parent="WIyWlLk6GJQsqaUBKTNV-1" source="MUNKduZxBYxkbEoiolL1-0" target="MUNKduZxBYxkbEoiolL1-1">
          <mxGeometry relative="1" as="geometry" />
        </mxCell>
        <mxCell id="MUNKduZxBYxkbEoiolL1-0" value="&lt;p class=&quot;MsoNormal&quot;&gt;&lt;font style=&quot;font-size: 18px&quot;&gt;&lt;b&gt;消化道内窥镜数据&lt;/b&gt;&lt;/font&gt;&lt;span lang=&quot;EN-US&quot;&gt;&lt;/span&gt;&lt;/p&gt;" style="rounded=0;whiteSpace=wrap;html=1;fontFamily=宋体;fontSource=https%3A%2F%2Fsongti.laoxiezi.com%2F;fontSize=24;fontColor=default;strokeColor=default;fillColor=none;" vertex="1" parent="WIyWlLk6GJQsqaUBKTNV-1">
          <mxGeometry y="290" width="120" height="60" as="geometry" />
        </mxCell>
        <mxCell id="MUNKduZxBYxkbEoiolL1-6" style="edgeStyle=orthogonalEdgeStyle;rounded=0;orthogonalLoop=1;jettySize=auto;html=1;entryX=0;entryY=0.5;entryDx=0;entryDy=0;fontFamily=宋体;fontSource=https%3A%2F%2Fsongti.laoxiezi.com%2F;fontSize=24;fontColor=default;" edge="1" parent="WIyWlLk6GJQsqaUBKTNV-1" source="MUNKduZxBYxkbEoiolL1-1" target="MUNKduZxBYxkbEoiolL1-2">
          <mxGeometry relative="1" as="geometry" />
        </mxCell>
        <mxCell id="MUNKduZxBYxkbEoiolL1-1" value="&lt;p class=&quot;MsoNormal&quot;&gt;&lt;font style=&quot;font-size: 18px&quot;&gt;&lt;b&gt;消化道异常特征&lt;/b&gt;&lt;/font&gt;&lt;span lang=&quot;EN-US&quot;&gt;&lt;/span&gt;&lt;/p&gt;" style="rounded=0;whiteSpace=wrap;html=1;fontFamily=宋体;fontSource=https%3A%2F%2Fsongti.laoxiezi.com%2F;fontSize=24;fontColor=default;strokeColor=default;fillColor=none;" vertex="1" parent="WIyWlLk6GJQsqaUBKTNV-1">
          <mxGeometry x="400" y="290" width="120" height="60" as="geometry" />
        </mxCell>
        <mxCell id="MUNKduZxBYxkbEoiolL1-7" style="edgeStyle=orthogonalEdgeStyle;rounded=0;orthogonalLoop=1;jettySize=auto;html=1;exitX=1;exitY=0.5;exitDx=0;exitDy=0;entryX=1;entryY=0.5;entryDx=0;entryDy=0;fontFamily=宋体;fontSource=https%3A%2F%2Fsongti.laoxiezi.com%2F;fontSize=24;fontColor=default;" edge="1" parent="WIyWlLk6GJQsqaUBKTNV-1" source="MUNKduZxBYxkbEoiolL1-2" target="MUNKduZxBYxkbEoiolL1-3">
          <mxGeometry relative="1" as="geometry" />
        </mxCell>
        <mxCell id="MUNKduZxBYxkbEoiolL1-2" value="&lt;p class=&quot;MsoNormal&quot;&gt;&lt;font style=&quot;font-size: 18px&quot;&gt;&lt;b&gt;特征融合&lt;/b&gt;&lt;/font&gt;&lt;span lang=&quot;EN-US&quot;&gt;&lt;/span&gt;&lt;/p&gt;" style="rounded=0;whiteSpace=wrap;html=1;fontFamily=宋体;fontSource=https%3A%2F%2Fsongti.laoxiezi.com%2F;fontSize=24;fontColor=default;strokeColor=default;fillColor=none;" vertex="1" parent="WIyWlLk6GJQsqaUBKTNV-1">
          <mxGeometry x="840" y="290" width="120" height="60" as="geometry" />
        </mxCell>
        <mxCell id="MUNKduZxBYxkbEoiolL1-8" style="edgeStyle=orthogonalEdgeStyle;rounded=0;orthogonalLoop=1;jettySize=auto;html=1;entryX=1;entryY=0.5;entryDx=0;entryDy=0;fontFamily=宋体;fontSource=https%3A%2F%2Fsongti.laoxiezi.com%2F;fontSize=24;fontColor=default;" edge="1" parent="WIyWlLk6GJQsqaUBKTNV-1" source="MUNKduZxBYxkbEoiolL1-3" target="MUNKduZxBYxkbEoiolL1-4">
          <mxGeometry relative="1" as="geometry" />
        </mxCell>
        <mxCell id="MUNKduZxBYxkbEoiolL1-3" value="&lt;p class=&quot;MsoNormal&quot;&gt;&lt;font style=&quot;font-size: 18px&quot;&gt;&lt;b&gt;异常预测种类位置&lt;span lang=&quot;EN-US&quot;&gt;Anchor&lt;/span&gt;框&lt;/b&gt;&lt;/font&gt;&lt;span lang=&quot;EN-US&quot;&gt;&lt;/span&gt;&lt;/p&gt;" style="rounded=0;whiteSpace=wrap;html=1;fontFamily=宋体;fontSource=https%3A%2F%2Fsongti.laoxiezi.com%2F;fontSize=24;fontColor=default;strokeColor=default;fillColor=none;" vertex="1" parent="WIyWlLk6GJQsqaUBKTNV-1">
          <mxGeometry x="627" y="470" width="120" height="60" as="geometry" />
        </mxCell>
        <mxCell id="MUNKduZxBYxkbEoiolL1-4" value="&lt;p class=&quot;MsoNormal&quot;&gt;&lt;font style=&quot;font-size: 18px&quot;&gt;&lt;b&gt;异常预测反馈&lt;/b&gt;&lt;/font&gt;&lt;span lang=&quot;EN-US&quot;&gt;&lt;/span&gt;&lt;/p&gt;" style="rounded=0;whiteSpace=wrap;html=1;fontFamily=宋体;fontSource=https%3A%2F%2Fsongti.laoxiezi.com%2F;fontSize=24;fontColor=default;strokeColor=default;fillColor=none;" vertex="1" parent="WIyWlLk6GJQsqaUBKTNV-1">
          <mxGeometry x="201" y="470" width="120" height="60" as="geometry" />
        </mxCell>
        <mxCell id="MUNKduZxBYxkbEoiolL1-10" value="&lt;p class=&quot;MsoNormal&quot;&gt;&lt;font&gt;&lt;b&gt;网络&lt;span lang=&quot;EN-US&quot;&gt;Head&lt;/span&gt;部分&lt;/b&gt;&lt;/font&gt;&lt;span lang=&quot;EN-US&quot;&gt;&lt;/span&gt;&lt;/p&gt;" style="rounded=0;whiteSpace=wrap;html=1;fontFamily=宋体;fontSource=https%3A%2F%2Fsongti.laoxiezi.com%2F;fontSize=18;fontColor=default;strokeColor=none;fillColor=none;" vertex="1" parent="WIyWlLk6GJQsqaUBKTNV-1">
          <mxGeometry x="990" y="380" width="120" height="60" as="geometry" />
        </mxCell>
        <mxCell id="MUNKduZxBYxkbEoiolL1-11" value="&lt;b&gt;主干网络CSPDarkNet53&lt;/b&gt;" style="rounded=0;whiteSpace=wrap;html=1;fontFamily=宋体;fontSource=https%3A%2F%2Fsongti.laoxiezi.com%2F;fontSize=18;fontColor=default;strokeColor=none;fillColor=none;" vertex="1" parent="WIyWlLk6GJQsqaUBKTNV-1">
          <mxGeometry x="100" y="280" width="290" height="60" as="geometry" />
        </mxCell>
        <mxCell id="MUNKduZxBYxkbEoiolL1-14" value="&lt;b&gt;模型Neck部分（SSP,PANet）&lt;/b&gt;" style="rounded=0;whiteSpace=wrap;html=1;fontFamily=宋体;fontSource=https%3A%2F%2Fsongti.laoxiezi.com%2F;fontSize=18;fontColor=default;strokeColor=none;fillColor=none;" vertex="1" parent="WIyWlLk6GJQsqaUBKTNV-1">
          <mxGeometry x="470" y="280" width="400" height="60" as="geometry" />
        </mxCell>
        <mxCell id="MUNKduZxBYxkbEoiolL1-15" value="&lt;b&gt;NMS（非最大值抑制）&lt;/b&gt;" style="rounded=0;whiteSpace=wrap;html=1;fontFamily=宋体;fontSource=https%3A%2F%2Fsongti.laoxiezi.com%2F;fontSize=18;fontColor=default;strokeColor=none;fillColor=none;" vertex="1" parent="WIyWlLk6GJQsqaUBKTNV-1">
          <mxGeometry x="383" y="457" width="215" height="60" as="geometry" />
        </mxCell>
      </root>
    </mxGraphModel>
  </diagram>
</mxfile>
